<?xml version="1.0" encoding="UTF-8" standalone="no"?>
<!-- Created with Inkscape (http://www.inkscape.org/) -->

<svg
   xmlns:dc="http://purl.org/dc/elements/1.1/"
   xmlns:cc="http://creativecommons.org/ns#"
   xmlns:rdf="http://www.w3.org/1999/02/22-rdf-syntax-ns#"
   xmlns:svg="http://www.w3.org/2000/svg"
   xmlns="http://www.w3.org/2000/svg"
   xmlns:sodipodi="http://sodipodi.sourceforge.net/DTD/sodipodi-0.dtd"
   xmlns:inkscape="http://www.inkscape.org/namespaces/inkscape"
   width="744.09448819"
   height="1052.3622047"
   id="svg2"
   version="1.1"
   inkscape:version="0.48.4 r9939"
   sodipodi:docname="data.svg">
  <defs
     id="defs4">
    <marker
       inkscape:stockid="Arrow1Lend"
       orient="auto"
       refY="0.0"
       refX="0.0"
       id="Arrow1Lend"
       style="overflow:visible;">
      <path
         id="path4352"
         d="M 0.0,0.0 L 5.0,-5.0 L -12.5,0.0 L 5.0,5.0 L 0.0,0.0 z "
         style="fill-rule:evenodd;stroke:#000000;stroke-width:1.0pt;"
         transform="scale(0.8) rotate(180) translate(12.5,0)" />
    </marker>
    <marker
       inkscape:stockid="Arrow1Lend"
       orient="auto"
       refY="0"
       refX="0"
       id="Arrow1Lend-4"
       style="overflow:visible">
      <path
         inkscape:connector-curvature="0"
         id="path4352-7"
         d="M 0,0 5,-5 -12.5,0 5,5 0,0 z"
         style="fill-rule:evenodd;stroke:#000000;stroke-width:1pt"
         transform="matrix(-0.8,0,0,-0.8,-10,0)" />
    </marker>
    <marker
       inkscape:stockid="Arrow1Lend"
       orient="auto"
       refY="0"
       refX="0"
       id="Arrow1Lend-3"
       style="overflow:visible">
      <path
         inkscape:connector-curvature="0"
         id="path4352-0"
         d="M 0,0 5,-5 -12.5,0 5,5 0,0 z"
         style="fill-rule:evenodd;stroke:#000000;stroke-width:1pt"
         transform="matrix(-0.8,0,0,-0.8,-10,0)" />
    </marker>
  </defs>
  <sodipodi:namedview
     id="base"
     pagecolor="#ffffff"
     bordercolor="#666666"
     borderopacity="1.0"
     inkscape:pageopacity="0.0"
     inkscape:pageshadow="2"
     inkscape:zoom="1.979899"
     inkscape:cx="455.95451"
     inkscape:cy="639.3257"
     inkscape:document-units="px"
     inkscape:current-layer="layer1"
     showgrid="false"
     showguides="true"
     inkscape:guide-bbox="true"
     inkscape:object-paths="true"
     inkscape:snap-midpoints="true"
     inkscape:snap-object-midpoints="true"
     inkscape:window-width="2556"
     inkscape:window-height="1401"
     inkscape:window-x="1920"
     inkscape:window-y="18"
     inkscape:window-maximized="0">
    <sodipodi:guide
       orientation="0,1"
       position="25.357143,665"
       id="guide2985" />
    <sodipodi:guide
       orientation="1,0"
       position="84.852814,786.90883"
       id="guide2987" />
    <sodipodi:guide
       orientation="1,0"
       position="442.44681,463.88696"
       id="guide2989" />
    <sodipodi:guide
       orientation="0,1"
       position="38.571429,442.5"
       id="guide3785" />
  </sodipodi:namedview>
  <metadata
     id="metadata7">
    <rdf:RDF>
      <cc:Work
         rdf:about="">
        <dc:format>image/svg+xml</dc:format>
        <dc:type
           rdf:resource="http://purl.org/dc/dcmitype/StillImage" />
        <dc:title />
      </cc:Work>
    </rdf:RDF>
  </metadata>
  <g
     inkscape:label="Layer 1"
     inkscape:groupmode="layer"
     id="layer1">
    <rect
       style="fill:none;stroke:#000000;stroke-width:1;stroke-linecap:round;stroke-linejoin:round;stroke-miterlimit:4;stroke-opacity:1;stroke-dasharray:none;stroke-dashoffset:0"
       id="rect3765"
       width="31.314728"
       height="31.314728"
       x="53.71825"
       y="387.36218" />
    <rect
       style="fill:none;stroke:#000000;stroke-width:1;stroke-linecap:round;stroke-linejoin:round;stroke-miterlimit:4;stroke-opacity:1;stroke-dasharray:none;stroke-dashoffset:0"
       id="rect3765-1"
       width="31.314728"
       height="31.314728"
       x="53.538094"
       y="427.00504" />
    <rect
       style="fill:none;stroke:#000000;stroke-width:1;stroke-linecap:round;stroke-linejoin:round;stroke-miterlimit:4;stroke-opacity:1;stroke-dasharray:none;stroke-dashoffset:0"
       id="rect3765-1-4"
       width="31.314728"
       height="31.314728"
       x="53.538078"
       y="578.37299" />
    <rect
       style="fill:none;stroke:#000000;stroke-width:1;stroke-linecap:round;stroke-linejoin:round;stroke-miterlimit:4;stroke-opacity:1;stroke-dasharray:none;stroke-dashoffset:0"
       id="rect3765-2"
       width="31.314728"
       height="31.314728"
       x="402.53867"
       y="578.81787" />
    <rect
       style="fill:none;stroke:#000000;stroke-width:1;stroke-linecap:round;stroke-linejoin:round;stroke-miterlimit:4;stroke-opacity:1;stroke-dasharray:none;stroke-dashoffset:0"
       id="rect3765-1-2"
       width="31.314728"
       height="31.314728"
       x="442.44681"
       y="578.81787" />
    <rect
       style="fill:none;stroke:#000000;stroke-width:1;stroke-linecap:round;stroke-linejoin:round;stroke-miterlimit:4;stroke-opacity:1;stroke-dasharray:none;stroke-dashoffset:0"
       id="rect3765-2-7"
       width="31.314728"
       height="31.314728"
       x="402.53867"
       y="538.32629" />
    <rect
       style="fill:none;stroke:#000000;stroke-width:1;stroke-linecap:round;stroke-linejoin:round;stroke-miterlimit:4;stroke-opacity:1;stroke-dasharray:none;stroke-dashoffset:0"
       id="rect3765-1-2-5"
       width="31.314728"
       height="31.314728"
       x="402.80396"
       y="499.04056" />
    <rect
       style="fill:none;stroke:#000000;stroke-width:1;stroke-linecap:round;stroke-linejoin:round;stroke-miterlimit:4;stroke-opacity:1;stroke-dasharray:none;stroke-dashoffset:0"
       id="rect3765-1-2-7"
       width="31.314728"
       height="31.314728"
       x="442.44681"
       y="538.41913" />
    <rect
       style="fill:none;stroke:#000000;stroke-width:1;stroke-linecap:round;stroke-linejoin:round;stroke-miterlimit:4;stroke-opacity:1;stroke-dasharray:none;stroke-dashoffset:0"
       id="rect3765-1-2-3"
       width="31.314728"
       height="31.314728"
       x="442.44681"
       y="499.94604" />
    <path
       sodipodi:type="arc"
       style="fill:none;stroke:#000000;stroke-width:1;stroke-linecap:round;stroke-linejoin:round;stroke-miterlimit:4;stroke-opacity:1;stroke-dasharray:none;stroke-dashoffset:0"
       id="path3895"
       sodipodi:cx="198.57143"
       sodipodi:cy="502.36218"
       sodipodi:rx="95.714287"
       sodipodi:ry="95.714287"
       d="m 294.28571,502.36218 a 95.714287,95.714287 0 1 1 -191.42857,0 95.714287,95.714287 0 1 1 191.42857,0 z"
       transform="translate(33.571429,-7.8571429)" />
    <text
       xml:space="preserve"
       style="font-size:24px;font-style:normal;font-weight:normal;line-height:125%;letter-spacing:0px;word-spacing:0px;fill:#000000;fill-opacity:1;stroke:none;font-family:Sans"
       x="61.868652"
       y="448.69913"
       id="text3897"
       sodipodi:linespacing="125%"><tspan
         sodipodi:role="line"
         id="tspan3899"
         x="61.868652"
         y="448.69913">x</tspan></text>
    <g
       id="g3061"
       transform="translate(-111.1239,-143.21428)">
      <g
         id="g3053">
        <rect
           style="fill:none;stroke:#000000;stroke-width:1;stroke-linecap:round;stroke-linejoin:round;stroke-miterlimit:4;stroke-opacity:1;stroke-dasharray:none;stroke-dashoffset:0"
           id="rect3765-1-5"
           width="31.314728"
           height="31.314728"
           x="164.66199"
           y="641.2301" />
      </g>
      <text
         sodipodi:linespacing="125%"
         id="text3897-3"
         y="663.49457"
         x="173.32271"
         style="font-size:24px;font-style:normal;font-weight:normal;line-height:125%;letter-spacing:0px;word-spacing:0px;fill:#000000;fill-opacity:1;stroke:none;font-family:Sans"
         xml:space="preserve"><tspan
           y="663.49457"
           x="173.32271"
           id="tspan3899-4"
           sodipodi:role="line">x</tspan></text>
    </g>
    <text
       xml:space="preserve"
       style="font-size:24px;font-style:normal;font-weight:normal;line-height:125%;letter-spacing:0px;word-spacing:0px;fill:#000000;fill-opacity:1;stroke:none;font-family:Sans"
       x="411.36966"
       y="521.03522"
       id="text3897-8"
       sodipodi:linespacing="125%"><tspan
         sodipodi:role="line"
         id="tspan3899-2"
         x="411.36966"
         y="521.03522">x</tspan></text>
    <path
       style="fill:none;stroke:#000000;stroke-width:1px;stroke-linecap:butt;stroke-linejoin:miter;stroke-opacity:1"
       d="m 69.195457,458.31976 -6e-6,39.69606"
       id="path3931"
       inkscape:connector-curvature="0"
       sodipodi:nodetypes="cc" />
    <path
       style="fill:none;stroke:#000000;stroke-width:1px;stroke-linecap:butt;stroke-linejoin:miter;stroke-opacity:1"
       d="M 402.80396,509.90677 84.852821,442.6624"
       id="path3933"
       inkscape:connector-curvature="0"
       sodipodi:nodetypes="cc" />
    <path
       style="fill:none;stroke:#000000;stroke-width:1px;stroke-linecap:butt;stroke-linejoin:miter;stroke-opacity:1"
       d="m 84.852815,513.67317 317.951145,6.1622"
       id="path3935"
       inkscape:connector-curvature="0"
       sodipodi:nodetypes="cc" />
    <path
       style="fill:none;stroke:#000000;stroke-width:1px;stroke-linecap:round;stroke-linejoin:miter;stroke-opacity:1"
       d="m 124.71291,400.05038 25.34115,9.23649"
       id="path3884-7"
       inkscape:connector-curvature="0"
       sodipodi:nodetypes="cc" />
    <path
       style="fill:none;stroke:#000000;stroke-width:1px;stroke-linecap:round;stroke-linejoin:miter;stroke-opacity:1"
       d="m 127.55491,409.76053 19.89397,-11.13115"
       id="path3886-5"
       inkscape:connector-curvature="0"
       sodipodi:nodetypes="cc" />
    <path
       inkscape:connector-curvature="0"
       id="path3888-4"
       d="m 154.08888,397.47008 c 0.0773,1.34219 -3.08207,2.45142 -7.05672,2.47753 -3.97463,0.0261 -7.25938,-1.04079 -7.3367,-2.38299 -0.0773,-1.3422 3.08208,-2.45144 7.05672,-2.47754 3.87054,-0.0255 7.10741,0.98749 7.32653,2.29268"
       style="fill:none;stroke:#000000;stroke-width:1;stroke-linecap:round;stroke-miterlimit:4;stroke-opacity:1"
       sodipodi:nodetypes="csscc" />
    <path
       inkscape:connector-curvature="0"
       id="path3888-6-0"
       d="m 157.72443,408.17385 c 0.0773,1.3422 -3.08208,2.45143 -7.05672,2.47754 -3.97463,0.0261 -7.25939,-1.0408 -7.3367,-2.38299 -0.0773,-1.3422 3.08208,-2.45144 7.05672,-2.47754 3.87053,-0.0255 7.1074,0.98749 7.32653,2.29268"
       style="fill:none;stroke:#000000;stroke-width:1;stroke-linecap:round;stroke-miterlimit:4;stroke-opacity:1"
       sodipodi:nodetypes="csscc" />
    <path
       inkscape:connector-curvature="0"
       id="path3888-8-2"
       d="m 135.28448,408.58831 c 0.0773,1.3422 -3.08208,2.45143 -7.05672,2.47754 -3.97463,0.0261 -7.25938,-1.0408 -7.3367,-2.383 -0.0773,-1.34219 3.08208,-2.45143 7.05672,-2.47753 3.87054,-0.0255 7.10741,0.98749 7.32653,2.29268"
       style="fill:none;stroke:#000000;stroke-width:1;stroke-linecap:round;stroke-miterlimit:4;stroke-opacity:1"
       sodipodi:nodetypes="csscc" />
    <path
       inkscape:connector-curvature="0"
       id="path3888-1-7"
       d="m 132.38328,399.2926 c 0.0773,1.3422 -3.08208,2.45143 -7.05672,2.47754 -3.97463,0.0261 -7.25938,-1.0408 -7.3367,-2.38299 -0.0773,-1.3422 3.08208,-2.45144 7.05672,-2.47754 3.87054,-0.0254 7.10741,0.98749 7.32653,2.29268"
       style="fill:none;stroke:#000000;stroke-width:1;stroke-linecap:round;stroke-miterlimit:4;stroke-opacity:1"
       sodipodi:nodetypes="csscc" />
    <g
       id="g3078"
       transform="translate(21.820388,-9.9876282)">
      <path
         inkscape:connector-curvature="0"
         id="path4088"
         d="m 321.60712,594.90683 2.85717,0"
         style="fill:none;stroke:#000000;stroke-width:1px;stroke-linecap:butt;stroke-linejoin:miter;stroke-opacity:1" />
      <path
         inkscape:connector-curvature="0"
         id="path4088-0"
         d="m 348.43749,590.21933 2.85717,0"
         style="fill:none;stroke:#000000;stroke-width:1px;stroke-linecap:butt;stroke-linejoin:miter;stroke-opacity:1" />
      <g
         id="g3067">
        <rect
           style="fill:none;stroke:#000000;stroke-width:1;stroke-linecap:round;stroke-linejoin:round;stroke-miterlimit:4;stroke-opacity:1;stroke-dasharray:none;stroke-dashoffset:0"
           id="rect4064"
           width="8.6290092"
           height="17.589294"
           x="312.97815"
           y="583.61218" />
        <rect
           style="fill:none;stroke:#000000;stroke-width:1;stroke-linecap:round;stroke-linejoin:round;stroke-miterlimit:4;stroke-opacity:1;stroke-dasharray:none;stroke-dashoffset:0"
           id="rect4086"
           width="23.750004"
           height="19.1071"
           x="324.46429"
           y="578.07648" />
        <path
           style="fill:none;stroke:#000000;stroke-width:1px;stroke-linecap:butt;stroke-linejoin:miter;stroke-opacity:1"
           d="m 321.4732,590.21933 2.85717,0"
           id="path4088-8"
           inkscape:connector-curvature="0" />
        <path
           style="fill:none;stroke:#000000;stroke-width:1px;stroke-linecap:butt;stroke-linejoin:miter;stroke-opacity:1"
           d="m 348.48212,594.90683 2.85717,0"
           id="path4088-4"
           inkscape:connector-curvature="0" />
        <path
           style="fill:none;stroke:#000000;stroke-width:1px;stroke-linecap:butt;stroke-linejoin:miter;stroke-opacity:1"
           d="m 336.33929,578.07647 0,-20.71428"
           id="path4126"
           inkscape:connector-curvature="0" />
        <rect
           style="fill:none;stroke:#000000;stroke-width:1;stroke-linecap:round;stroke-linejoin:round;stroke-miterlimit:4;stroke-opacity:1;stroke-dasharray:none;stroke-dashoffset:0"
           id="rect4064-1"
           width="8.6290092"
           height="17.589294"
           x="351.22644"
           y="583.61218" />
        <path
           style="fill:none;stroke:#000000;stroke-width:1;stroke-linecap:round;stroke-linejoin:round;stroke-miterlimit:4;stroke-opacity:1;stroke-dashoffset:0"
           d="m 327.58929,551.29071 c 9.05411,0 9.0822,0.016 17.5,0 3.85494,-0.007 3.66727,6.07144 0,6.07144 -8.7675,0 -8.75,4e-5 -17.5,0 -3.91785,-2e-5 -4.04412,-6.07144 0,-6.07144 z"
           id="rect4146"
           inkscape:connector-curvature="0"
           sodipodi:nodetypes="sssss" />
        <path
           sodipodi:type="arc"
           style="fill:none;stroke:#000000;stroke-width:1;stroke-linecap:round;stroke-linejoin:round;stroke-miterlimit:4;stroke-opacity:1;stroke-dasharray:none;stroke-dashoffset:0"
           id="path4149"
           sodipodi:cx="357.78342"
           sodipodi:cy="583.77765"
           sodipodi:rx="1.3258252"
           sodipodi:ry="1.3258252"
           d="m 359.10924,583.77765 c 0,0.73223 -0.59359,1.32582 -1.32582,1.32582 -0.73224,0 -1.32583,-0.59359 -1.32583,-1.32582 0,-0.73223 0.59359,-1.32583 1.32583,-1.32583 0.73223,0 1.32582,0.5936 1.32582,1.32583 z"
           transform="translate(-29.642857,-29.411983)" />
        <path
           sodipodi:type="arc"
           style="fill:none;stroke:#000000;stroke-width:1;stroke-linecap:round;stroke-linejoin:round;stroke-miterlimit:4;stroke-opacity:1;stroke-dasharray:none;stroke-dashoffset:0"
           id="path4149-0"
           sodipodi:cx="357.78342"
           sodipodi:cy="583.77765"
           sodipodi:rx="1.3258252"
           sodipodi:ry="1.3258252"
           d="m 359.10924,583.77765 c 0,0.73223 -0.59359,1.32582 -1.32582,1.32582 -0.73224,0 -1.32583,-0.59359 -1.32583,-1.32582 0,-0.73223 0.59359,-1.32583 1.32583,-1.32583 0.73223,0 1.32582,0.5936 1.32582,1.32583 z"
           transform="translate(-13.137781,-29.411983)" />
      </g>
    </g>
    <path
       sodipodi:type="arc"
       style="fill:#d40000;stroke:none;stroke-width:1;stroke-linecap:round;stroke-linejoin:round;stroke-miterlimit:4;stroke-opacity:1;stroke-dasharray:none;stroke-dashoffset:0;fill-opacity:1"
       id="path4169"
       sodipodi:cx="308.33029"
       sodipodi:cy="552.45056"
       sodipodi:rx="9.5268621"
       sodipodi:ry="9.5268621"
       d="m 317.85715,552.45056 a 9.5268621,9.5268621 0 1 1 -19.05372,0 9.5268621,9.5268621 0 1 1 19.05372,0 z" />
    <path
       transform="translate(-148.35344,-120.82285)"
       sodipodi:type="arc"
       style="fill:#4cce76;fill-opacity:1;stroke:none"
       id="path4169-4"
       sodipodi:cx="308.33029"
       sodipodi:cy="552.45056"
       sodipodi:rx="9.5268621"
       sodipodi:ry="9.5268621"
       d="m 317.85715,552.45056 a 9.5268621,9.5268621 0 1 1 -19.05372,0 9.5268621,9.5268621 0 1 1 19.05372,0 z" />
    <path
       transform="translate(-127.02052,23.169493)"
       sodipodi:type="arc"
       style="fill:#4cce76;fill-opacity:1;stroke:none"
       id="path4169-4-4"
       sodipodi:cx="308.33029"
       sodipodi:cy="552.45056"
       sodipodi:rx="9.5268621"
       sodipodi:ry="9.5268621"
       d="m 317.85715,552.45056 a 9.5268621,9.5268621 0 1 1 -19.05372,0 9.5268621,9.5268621 0 1 1 19.05372,0 z" />
    <path
       transform="translate(-16.350263,-132.6543)"
       sodipodi:type="arc"
       style="fill:#4c96d3;fill-opacity:1;stroke:none"
       id="path4169-4-0"
       sodipodi:cx="308.33029"
       sodipodi:cy="552.45056"
       sodipodi:rx="9.5268621"
       sodipodi:ry="9.5268621"
       d="m 317.85715,552.45056 a 9.5268621,9.5268621 0 1 1 -19.05372,0 9.5268621,9.5268621 0 1 1 19.05372,0 z" />
    <g
       id="g3056"
       transform="translate(-31.307609,-102.4353)">
      <rect
         y="641.2301"
         x="84.845695"
         height="31.314728"
         width="31.314728"
         id="rect3765-9"
         style="fill:none;stroke:#000000;stroke-width:1;stroke-linecap:round;stroke-linejoin:round;stroke-miterlimit:4;stroke-opacity:1;stroke-dasharray:none;stroke-dashoffset:0" />
      <text
         sodipodi:linespacing="125%"
         id="text4225"
         y="665.21936"
         x="93.214287"
         style="font-size:24px;font-style:normal;font-weight:normal;line-height:125%;letter-spacing:0px;word-spacing:0px;fill:#000000;fill-opacity:1;stroke:none;font-family:Sans"
         xml:space="preserve"><tspan
           y="665.21936"
           x="93.214287"
           id="tspan4227"
           sodipodi:role="line">y</tspan></text>
    </g>
    <path
       style="fill:none;stroke:#000000;stroke-width:1px;stroke-linecap:butt;stroke-linejoin:miter;stroke-opacity:1"
       d="m 376.18107,425.1988 24.11567,12.05783 16.07713,-4.01927 -20.3835,-14.06748 2.29673,-17.79968 -14.92874,4.88054 z"
       id="path3993"
       inkscape:connector-curvature="0"
       sodipodi:nodetypes="ccccccc" />
    <path
       style="fill:none;stroke:#000000;stroke-width:1px;stroke-linecap:round;stroke-linejoin:miter;stroke-opacity:1"
       d="m 115.4272,582.68189 25.34115,9.23649"
       id="path3884-7-0"
       inkscape:connector-curvature="0"
       sodipodi:nodetypes="cc" />
    <path
       style="fill:none;stroke:#000000;stroke-width:1px;stroke-linecap:round;stroke-linejoin:miter;stroke-opacity:1"
       d="m 118.2692,592.39204 19.89397,-11.13115"
       id="path3886-5-6"
       inkscape:connector-curvature="0"
       sodipodi:nodetypes="cc" />
    <path
       inkscape:connector-curvature="0"
       id="path3888-4-7"
       d="m 144.80317,580.10159 c 0.0773,1.34219 -3.08207,2.45142 -7.05672,2.47753 -3.97463,0.0261 -7.25938,-1.04079 -7.3367,-2.38299 -0.0773,-1.3422 3.08208,-2.45144 7.05672,-2.47754 3.87054,-0.0255 7.10741,0.98749 7.32653,2.29268"
       style="fill:none;stroke:#000000;stroke-width:1;stroke-linecap:round;stroke-miterlimit:4;stroke-opacity:1"
       sodipodi:nodetypes="csscc" />
    <path
       inkscape:connector-curvature="0"
       id="path3888-6-0-4"
       d="m 148.43872,590.80536 c 0.0773,1.3422 -3.08208,2.45143 -7.05672,2.47754 -3.97463,0.0261 -7.25939,-1.0408 -7.3367,-2.38299 -0.0773,-1.3422 3.08208,-2.45144 7.05672,-2.47754 3.87053,-0.0255 7.1074,0.98749 7.32653,2.29268"
       style="fill:none;stroke:#000000;stroke-width:1;stroke-linecap:round;stroke-miterlimit:4;stroke-opacity:1"
       sodipodi:nodetypes="csscc" />
    <path
       inkscape:connector-curvature="0"
       id="path3888-8-2-8"
       d="m 125.99877,591.21982 c 0.0773,1.3422 -3.08208,2.45143 -7.05672,2.47754 -3.97463,0.0261 -7.25939,-1.0408 -7.33671,-2.383 -0.0773,-1.34219 3.08209,-2.45143 7.05673,-2.47753 3.87054,-0.0255 7.10741,0.98749 7.32653,2.29268"
       style="fill:none;stroke:#000000;stroke-width:1;stroke-linecap:round;stroke-miterlimit:4;stroke-opacity:1"
       sodipodi:nodetypes="csscc" />
    <path
       inkscape:connector-curvature="0"
       id="path3888-1-7-2"
       d="m 123.09757,581.92411 c 0.0773,1.3422 -3.08208,2.45143 -7.05672,2.47754 -3.97463,0.0261 -7.25939,-1.0408 -7.33671,-2.38299 -0.0773,-1.3422 3.08209,-2.45144 7.05673,-2.47754 3.87054,-0.0254 7.10741,0.98749 7.32653,2.29268"
       style="fill:none;stroke:#000000;stroke-width:1;stroke-linecap:round;stroke-miterlimit:4;stroke-opacity:1"
       sodipodi:nodetypes="csscc" />
    <path
       style="fill:none;stroke:#000000;stroke-width:0.5;stroke-linecap:butt;stroke-linejoin:miter;stroke-miterlimit:4;stroke-opacity:1;stroke-dasharray:none;stroke-dashoffset:0;marker-end:url(#Arrow1Lend)"
       d="m 369.64286,418.79075 c -17.65737,-15.1567 -51.68642,-14.26359 -69.34508,-3.64301"
       id="path4343"
       inkscape:connector-curvature="0"
       sodipodi:nodetypes="cc" />
    <path
       style="fill:none;stroke:#000000;stroke-width:0.5;stroke-linecap:butt;stroke-linejoin:miter;stroke-miterlimit:4;stroke-opacity:1;stroke-dasharray:none;stroke-dashoffset:0;marker-end:url(#Arrow1Lend)"
       d="m 284.56028,425.77244 c -34.93816,25.72221 -73.46351,26.33405 -115.06745,5.3958"
       id="path4343-8"
       inkscape:connector-curvature="0"
       sodipodi:nodetypes="cc" />
    <path
       style="fill:none;stroke:#000000;stroke-width:0.5;stroke-linecap:butt;stroke-linejoin:miter;stroke-miterlimit:4;stroke-opacity:1;stroke-dasharray:none;stroke-dashoffset:0;marker-end:url(#Arrow1Lend)"
       d="M 152.39622,425.85668 C 99.470254,411.9766 129.59822,534.92143 84.852814,554.45215"
       id="path4343-1"
       inkscape:connector-curvature="0"
       sodipodi:nodetypes="cc" />
    <text
       xml:space="preserve"
       style="font-size:24px;font-style:normal;font-weight:normal;line-height:125%;letter-spacing:0px;word-spacing:0px;fill:#000000;fill-opacity:1;stroke:none;font-family:Sans"
       x="327.18414"
       y="440.71432"
       id="text4225-9"
       sodipodi:linespacing="125%"><tspan
         sodipodi:role="line"
         id="tspan4227-8"
         x="327.18414"
         y="440.71432">y?</tspan></text>
    <text
       xml:space="preserve"
       style="font-size:22px;font-style:normal;font-weight:normal;line-height:125%;letter-spacing:0px;word-spacing:0px;fill:#000000;fill-opacity:1;stroke:none;font-family:Sans"
       x="177.85715"
       y="501.64789"
       id="text5027"
       sodipodi:linespacing="125%"><tspan
         sodipodi:role="line"
         id="tspan5029"
         x="177.85715"
         y="501.64789">DHT index</tspan></text>
  </g>
</svg>
